<svg width="750" height="561" viewBox="0 0 750 561" fill="none" xmlns="http://www.w3.org/2000/svg">
<g clip-path="url(#clip0_1_2)">
<path d="M401.842 270.988C393.254 275.71 383.909 279.469 376.302 285.441C369.507 290.777 364.519 298.465 358.94 305.283C353.733 311.646 349.081 318.479 343.669 324.652C337.18 332.054 330.339 339.176 323.292 346.05C315.421 353.727 306.083 359.531 295.872 363.371C287.525 366.509 278.544 367.916 270.02 370.642C264.073 372.544 258.424 375.378 251.966 377.889C250.562 378.321 249.833 378.66 249.104 379C236.851 385.704 224.362 392.017 212.411 399.223C200.464 406.426 188.856 414.241 177.489 422.336C171.075 426.903 165.49 432.624 159.452 437.731C154.228 442.149 148.555 446.091 143.675 450.853C134.844 459.472 126.482 468.569 117.874 477.418C113.088 482.339 107.968 486.954 103.421 492.081C98.1699 498.001 93.3727 504.325 88.3988 510.49C83.1252 517.026 77.8561 523.567 72.6356 530.146C71.8353 531.154 71.3073 532.379 70.1944 534.293C67.5576 527.971 65.2154 522.157 62.7148 516.412C59.6286 509.321 56.2702 502.346 53.2883 495.212C50.1875 487.794 47.534 480.189 44.4285 472.774C41.4915 465.76 38.1315 458.925 35.1351 451.935C33.5914 448.334 32.4343 444.567 31.4269 440.417C33.0843 438.734 34.6129 437.664 35.7206 436.261C49.6415 418.63 63.9534 401.284 77.2446 383.188C89.4428 366.581 100.524 349.153 112.333 331.962C112.572 331.586 112.574 331.333 112.576 331.081C112.216 331.165 111.856 331.249 111.185 331.487C78.4804 353.992 46.0874 376.344 13.6943 398.697C9.81674 389.374 5.93913 380.051 2.05957 370.024C3.6616 368.237 5.2656 367.153 7.21389 366.055C11.4689 364.058 15.3796 362.076 19.6396 360.075C26.8464 356.026 33.8068 352.157 40.5129 347.889C43.3502 346.083 45.7248 343.512 48.1822 341.155C52.5354 336.981 57.3799 333.141 60.9249 328.352C64.6079 323.376 67.2044 317.541 69.9021 311.903C74.5966 302.091 78.929 292.107 83.558 282.263C86.5964 275.802 90.0497 269.534 93.0203 263.043C95.6721 257.249 97.7164 251.176 100.383 245.39C105.515 234.257 110.979 223.278 116.141 212.158C118.825 206.377 121.364 200.51 123.605 194.545C127.42 184.387 131.451 174.263 134.409 163.845C136.225 157.448 136.214 150.532 137.349 143.704C137.456 142.325 137.238 141.09 137.177 139.57C137.564 138.47 137.794 137.655 138.35 136.697C138.457 135.327 138.238 134.1 138.165 132.58C139.179 128.852 140.632 125.447 140.815 121.974C141.679 105.67 151.258 92.1723 155.101 76.8053C156.664 70.5576 160.883 65.0069 163.609 59.0097C167.194 51.1238 170.293 43.0125 174.025 35.2009C175.464 32.1888 177.535 28.8331 180.258 27.2223C185.042 24.3925 190.465 26.156 194.76 28.8256C200.089 32.138 201.515 38.4164 200.657 43.9065C199.216 53.1326 196.396 62.1643 193.83 71.1853C192.448 76.0477 189.947 80.6082 188.733 85.499C186.462 94.6466 184.718 103.927 182.836 113.169C181.62 119.139 180.546 125.137 179.408 131.123C179.917 131.368 180.425 131.612 180.933 131.856C182.187 130.509 183.774 129.346 184.638 127.784C188.689 120.465 192.401 112.957 196.499 105.667C201.853 96.1439 207.437 86.7493 212.987 77.3383C213.519 76.437 214.408 75.622 215.321 75.096C217.279 73.968 219.537 73.3032 221.36 72.009C227.547 67.6175 233.439 62.7979 239.744 58.5925C245.847 54.5225 252.528 51.3135 258.585 47.184C268.997 40.0859 279.305 32.8058 289.309 25.1484C297.425 18.936 305.02 12.0562 313.954 6.93762C317.078 5.14787 319.991 2.98985 323 1C326.031 1 329.061 1 332.532 1.37391C334.234 2.91659 335.426 4.17245 336.77 5.23654C339.84 7.66611 343.069 10.5458 341.52 14.6178C339.676 19.4624 336.685 23.8963 333.968 28.3735C332.162 31.3513 329.966 34.0931 327.783 37.3002C327.681 38.0892 327.742 38.5187 327.88 38.9524C327.957 38.9566 327.948 38.8033 327.646 38.5168C324.87 40.7777 322.396 43.325 319.923 45.8971C319.925 45.9219 319.875 45.9223 319.49 45.99C319.009 46.6983 318.912 47.3389 318.897 47.9762C318.978 47.9729 318.961 47.8116 318.669 47.533C317.895 47.484 317.414 47.7135 316.577 47.9206C312.793 51.0634 309.307 54.1682 305.949 57.4055C296.97 66.0611 287.983 74.711 279.145 83.51C277.08 85.5662 275.755 88.3475 273.807 90.5452C269.957 94.8908 265.796 98.9641 261.989 103.346C260.042 105.586 258.582 108.25 256.543 110.797C255.022 112.285 253.859 113.698 252.696 115.11C253.108 115.547 253.519 115.984 253.931 116.421C259.107 113.65 264.282 110.878 269.807 108.122C276.54 104.49 283.053 101.049 289.281 97.152C302.041 89.1692 314.749 81.094 327.287 72.768C337.581 65.9316 347.984 59.1608 357.625 51.4664C366.464 44.4117 374.788 36.7129 384.14 30.2749C388.784 27.0773 393.506 25.0405 398.8 28.5752C403.571 31.7614 406.179 39.4957 404.252 45.3669C402.32 51.2524 399.94 56.9906 397.468 62.9628C395.427 65.9778 393.675 68.8233 391.544 71.8466C391.088 72.6718 391.011 73.3192 390.916 73.9536C390.9 73.9406 390.858 73.9274 390.523 73.6869C360.915 100.049 331.642 126.651 301.669 153.89C304.056 154.011 305.772 154.18 307.487 154.173C316.479 154.135 325.538 153.36 334.442 154.211C341.347 154.871 348.405 156.754 354.766 159.533C361.721 162.572 368.009 167.176 374.486 171.259C383.964 177.233 394.004 182.127 402.702 189.61C408.409 194.52 412.465 199.659 414.775 206.477C415.215 207.776 414.701 209.397 414.453 211.136C410.474 214.81 406.67 218.217 402.532 221.593C398.683 220.931 395.045 220.674 391.683 219.574C387.712 218.274 383.586 216.803 380.216 214.428C369.899 207.16 357.866 204.246 346.084 201.33C337.796 199.279 328.826 199.774 320.15 199.576C314.253 199.44 308.512 200.657 303.941 204.891C294.818 213.342 283.211 217.604 272.515 223.358C269.437 225.013 267.686 226.599 267.639 230.179C267.527 231.516 267.756 232.747 267.996 234.335C268.97 238.165 269.548 241.806 270.967 245.083C276.485 257.825 283.108 269.716 297.283 275.327C298.267 275.427 299.144 275.22 300.336 274.897C301.891 274.763 303.373 275.185 304.332 274.658C309.59 271.767 314.814 268.788 319.851 265.532C322.043 264.114 323.647 261.821 325.714 260.171C331.198 255.794 336.823 251.593 342.325 247.239C345.984 244.343 349.488 241.252 353.133 238.338C363.951 229.69 376.767 231.647 389.195 231.667C394.555 231.676 399.914 231.883 405.613 232.067C410.651 233.855 415.349 235.576 420.333 237.56C427.695 241.276 429.013 245.82 424.867 251.712C423.286 253.959 422.162 256.528 420.473 258.959C414.025 262.975 407.933 266.982 401.842 270.988ZM317.186 18.0099C294.744 34.993 272.196 51.8371 249.896 69.0043C232.786 82.1762 214.401 105.743 204.958 126.181C206.587 125.173 208.073 123.989 209.435 122.678C222.274 110.325 235.038 97.894 247.926 85.5929C271.41 63.1784 294.964 40.8369 318.801 18.0506C318.758 17.8026 318.715 17.5546 318.671 17.3066C318.399 17.4863 318.126 17.6659 317.186 18.0099ZM245.784 223.542C208.286 254.863 168.802 283.858 134.314 318.859C135.986 318.662 137.511 318.191 138.895 317.455C149.167 311.992 159.506 306.644 169.648 300.945C202.515 282.475 227.281 255.763 247.697 223.885C247.728 223.437 247.76 222.99 247.791 222.543C247.321 222.77 246.851 222.996 245.784 223.542ZM309.151 312.831C289.387 316.397 269.45 319.208 249.899 323.699C217.905 331.048 185.793 336.718 152.85 336.628C147.216 336.613 141.581 336.931 135.878 336.948L135.8 336.882C135.8 336.882 136.007 337.031 136.413 337.617C148.319 341.27 160.117 345.337 172.155 348.487C196.48 354.852 220.546 354.456 243.936 344.133C259.438 337.291 275.026 330.636 290.417 323.553C297.128 320.464 303.444 316.514 310.311 312.921C310.498 312.794 310.685 312.668 310.872 312.542C310.751 312.499 310.564 312.385 310.52 312.426C310.327 312.603 310.176 312.824 309.151 312.831ZM186.53 229.013C165.961 254.505 146.96 281.118 129.131 308.853C136.848 307.432 179.613 263.947 193.594 243.564C209.223 220.779 237.611 168.786 237.377 162.88C220.431 184.923 203.7 206.686 186.53 229.013ZM133.193 277.646C129.554 286.305 125.915 294.963 122.276 303.621C122.669 303.863 123.062 304.105 123.454 304.347C142.138 279.533 161.545 255.186 174.883 226.765C184.608 206.043 199.539 146.532 199.343 135.833C198.382 138.085 197.658 139.724 196.979 141.381C183.021 175.423 168.788 209.312 150.616 241.432C144.159 252.844 139.194 265.101 133.193 277.646ZM132.044 253.668C144.761 216.077 154.572 171.228 154.244 151.905C131.022 200.032 114.727 249.719 114.893 304.693C120.736 287.384 126.297 270.911 132.044 253.668ZM302.162 108.678C283.87 123.332 265.578 137.987 247.286 152.641C249.185 152.678 250.804 152.075 252.294 151.242C266.382 143.364 280.688 135.837 294.44 127.409C304.18 121.44 313.933 115.081 322.33 107.416C342.002 89.4581 360.866 70.6151 380.037 52.109C380.785 51.3867 381.32 50.4443 381.955 49.6044C381.68 49.2983 381.406 48.9922 381.131 48.6861C354.522 67.9026 327.879 87.0746 302.162 108.678ZM298.11 176.581C283.087 186.658 270.487 199.363 258.623 212.972C260.605 212.477 262.292 211.568 263.956 210.619C277.375 202.966 290.671 195.089 304.248 187.73C312.188 183.426 320.882 182.504 329.936 183.613C348.326 185.866 365.37 192.351 382.242 199.499C383.62 200.083 385.036 200.577 386.435 201.112C371.86 188.829 356.2 178.682 338.455 171.956C324.407 166.632 311.139 167.048 298.11 176.581ZM328.237 296.736C324.992 300.094 321.746 303.451 318.5 306.809C350.976 287.717 380.963 264.379 416.557 250.173C409.191 249.406 402.085 249.364 395.067 250.127C382.062 251.541 370.33 255.681 360.807 265.5C350.505 276.122 339.463 286.026 328.237 296.736ZM166.853 81.3222C162.901 102.388 158.948 123.455 154.995 144.521C168.135 123.434 186.367 50.1854 181.563 39.2434C176.515 53.6039 171.782 67.0686 166.853 81.3222Z" fill="#050606"/>
<path d="M732.789 342.965C738.64 348.576 744.491 354.186 750.671 359.899C751 361.067 751 362.133 751 363.6C749.599 363.758 747.733 364.01 746.868 363.197C737.432 354.329 728.152 345.295 718.574 335.754C719.17 334.107 720.021 333.011 721.169 331.997C721.668 332.044 721.87 332.01 722.073 331.977C722.073 331.977 722.007 331.993 721.952 332.319C725.528 336.086 729.159 339.525 732.789 342.965Z" fill="#2281F0"/>
<path d="M112.097 332.086C100.524 349.153 89.4428 366.581 77.2446 383.188C63.9534 401.284 49.6415 418.63 35.7206 436.261C34.6129 437.664 33.0843 438.734 31.4238 440.056C29.9308 438.809 28.3499 437.647 27.6701 436.092C24.2991 428.378 21.0792 420.594 17.9829 412.765C16.2536 408.393 14.8686 403.885 13.5114 399.067C46.0874 376.344 78.4804 353.992 111.321 331.686C111.768 331.733 112.097 332.086 112.097 332.086Z" fill="#197BEE"/>
<path d="M476.927 301.019C471.572 305.129 465.834 306.533 459.597 303.178C454.359 300.362 451.651 295.99 452.442 289.409C453.714 286.673 454.596 284.437 455.717 281.888C458.66 280.109 461.364 278.642 464.281 277.439C465.973 277.527 467.452 277.351 469.296 277.122C475.051 278.858 479.292 281.834 479.929 287.982C480.214 290.73 479.93 293.537 479.586 296.387C478.487 297.977 477.707 299.498 476.927 301.019Z" fill="#4EDCDC"/>
<path d="M720.872 331.916C720.021 333.011 719.17 334.107 718.333 335.542C706.887 340.13 700.667 338.137 696 328.016C695.599 325.538 695.196 323.763 694.894 321.648C695.378 320.211 695.761 319.116 696.473 317.964C698.878 315.964 700.954 314.021 703.228 311.868C703.503 311.291 703.581 310.923 704.017 310.743C705.454 310.338 706.532 309.744 707.61 309.151C708.701 309.761 709.759 310.828 710.888 310.909C721.72 311.694 725.796 318.323 721.68 329.761C721.211 330.871 721.041 331.393 720.872 331.916Z" fill="#F1ABEC"/>
<path d="M542.663 336.982C537.899 347.758 528.289 348.073 520.304 342.096C517.301 339.847 515.639 334.612 517.233 329.268C517.733 327.758 517.961 326.821 518.426 325.633C518.929 324.438 518.916 323.236 519.509 322.595C521.966 319.945 532.257 318.001 535.578 319.386C540.031 321.244 544.001 327.564 543.717 333.055C543.158 334.51 542.911 335.746 542.663 336.982Z" fill="#4E8853"/>
<path d="M401.903 271.388C407.933 266.982 414.025 262.975 420.652 259.266C428.81 264.424 430.636 269.006 427.979 277.281C427.587 278.681 427.337 279.77 427.088 280.858C425.968 281.833 424.857 282.819 423.726 283.782C416.582 289.859 406.532 286.998 403.496 277.969C402.822 275.964 402.467 273.852 401.903 271.388Z" fill="#D148DB"/>
<path d="M542.925 337.261C542.911 335.746 543.158 334.51 544.127 333.116C552.579 332.694 560.311 332.428 568.295 332.4C570.029 332.148 571.511 331.658 573.371 331.123C576.849 331.106 579.948 331.134 583.298 331.399C585.034 331.148 586.519 330.66 588.335 330.228C590.122 330.247 591.577 330.21 593.293 330.414C595.354 330.491 597.155 330.326 599.303 329.988C604.067 329.544 608.494 329.376 612.9 328.981C618.605 328.469 624.293 327.775 630.447 327.086C634.942 326.961 638.979 326.909 643.447 326.91C644.545 326.968 645.213 327.015 645.876 326.971C656.074 326.292 666.289 325.796 676.462 324.84C682.607 324.261 688.685 322.963 694.794 321.988C695.196 323.763 695.599 325.538 695.926 327.661C689.947 328.302 684.047 328.704 678.14 328.856C671.024 329.039 663.903 329.008 655.962 329.049C647.678 329.681 640.216 330.334 632.754 330.987C623.771 331.867 614.787 332.748 605.313 333.353C601.748 331.725 598.691 330.598 596.007 333.83C594.269 334.204 592.532 334.578 590.306 334.514C586.53 334.088 583.243 334.1 579.957 334.113C578.539 334.394 577.121 334.675 575.101 334.657C573.308 334.591 572.117 334.825 570.926 335.059C566.26 335.524 561.598 336.026 556.928 336.444C552.352 336.853 547.768 337.178 542.925 337.261Z" fill="#197CF0"/>
<path d="M518.19 325.884C517.961 326.821 517.733 327.758 517.238 328.944C512.073 326.047 507.062 323.064 502.304 319.721C493.878 313.801 485.606 307.663 477.099 301.318C477.707 299.498 478.487 297.977 479.778 296.641C481.041 297.624 481.698 298.551 482.563 299.201C494.421 308.118 506.309 316.996 518.19 325.884Z" fill="#2483F1"/>
<path d="M427.494 280.912C427.337 279.77 427.587 278.681 428.374 277.292C429.908 276.998 430.989 276.753 431.886 277.054C436.388 278.566 440.753 280.594 445.344 281.701C448.575 282.48 452.091 282.076 455.479 282.2C454.596 284.437 453.714 286.673 452.505 289C444.086 286.382 435.994 283.673 427.494 280.912Z" fill="#2C87F1"/>
<path d="M580.16 334.397C583.243 334.1 586.53 334.088 589.924 334.449C586.809 334.775 583.586 334.728 580.16 334.397Z" fill="#2583F1"/>
<path d="M596.367 333.876C598.691 330.598 601.748 331.725 604.929 333.449C602.266 333.854 599.496 333.887 596.367 333.876Z" fill="#2583F1"/>
<path d="M571.109 335.34C572.117 334.825 573.308 334.591 574.734 334.591C573.743 335.091 572.518 335.356 571.109 335.34Z" fill="#2583F1"/>
<path d="M380.066 354.072C378.945 354.36 377.409 354.643 375.474 354.87C376.601 354.565 378.126 354.316 380.066 354.072Z" fill="#47704C"/>
<path d="M249.422 378.998C249.833 378.66 250.562 378.321 251.629 378.041C251.225 378.399 250.483 378.698 249.422 378.998Z" fill="#47704C"/>
<path d="M349.113 354.081C348.591 354.364 347.7 354.644 346.44 354.87C346.962 354.569 347.853 354.323 349.113 354.081Z" fill="#47704C"/>
<path d="M309.939 312.955C303.444 316.514 297.128 320.464 290.417 323.553C275.026 330.636 259.438 337.291 243.936 344.133C220.546 354.456 196.48 354.852 172.155 348.487C160.117 345.337 148.319 341.27 136.19 337.335C135.967 337.053 135.946 337.095 135.946 337.095C141.581 336.931 147.216 336.613 152.85 336.628C185.793 336.718 217.905 331.048 249.899 323.699C269.45 319.208 289.387 316.397 309.565 312.91C309.979 312.988 309.939 312.955 309.939 312.955Z" fill="#197AEC"/>
<path d="M186.75 228.731C203.7 206.686 220.431 184.923 237.376 162.88C237.611 168.786 209.223 220.779 193.594 243.564C179.613 263.947 136.848 307.432 129.131 308.853C146.96 281.118 165.961 254.505 186.75 228.731Z" fill="#1879EB"/>
<path d="M133.371 277.309C139.194 265.101 144.159 252.844 150.616 241.432C168.788 209.312 183.021 175.423 196.979 141.381C197.658 139.724 198.382 138.085 199.343 135.833C199.539 146.532 184.608 206.043 174.883 226.765C161.545 255.186 142.138 279.533 123.454 304.347C123.062 304.105 122.669 303.863 122.276 303.621C125.915 294.963 129.554 286.305 133.371 277.309Z" fill="#1879EA"/>
<path d="M131.951 254.053C126.297 270.911 120.736 287.384 114.893 304.693C114.727 249.719 131.022 200.032 154.244 151.905C154.572 171.228 144.761 216.077 131.951 254.053Z" fill="#1879EB"/>
<path d="M247.218 224.196C227.281 255.763 202.515 282.475 169.648 300.945C159.506 306.644 149.167 311.992 138.895 317.455C137.511 318.191 135.986 318.662 134.314 318.859C168.802 283.858 208.286 254.863 246.278 223.638C246.92 223.888 247.069 224.042 247.218 224.196Z" fill="#187AEC"/>
<path d="M302.43 108.443C327.879 87.0746 354.522 67.9027 381.131 48.6861C381.406 48.9922 381.68 49.2983 381.955 49.6044C381.32 50.4443 380.785 51.3868 380.037 52.1091C360.866 70.6151 342.002 89.4581 322.33 107.416C313.933 115.081 304.18 121.44 294.44 127.409C280.688 135.837 266.382 143.364 252.294 151.242C250.804 152.075 249.185 152.678 247.286 152.641C265.578 137.987 283.87 123.332 302.43 108.443Z" fill="#1879EA"/>
<path d="M298.408 176.373C311.139 167.048 324.407 166.632 338.455 171.956C356.2 178.682 371.86 188.829 386.435 201.112C385.036 200.577 383.62 200.083 382.242 199.499C365.37 192.351 348.326 185.866 329.936 183.613C320.882 182.504 312.188 183.426 304.248 187.73C290.671 195.089 277.375 202.966 263.956 210.619C262.292 211.568 260.605 212.477 258.623 212.972C270.487 199.363 283.087 186.658 298.408 176.373Z" fill="#1879EB"/>
<path d="M318.489 18.465C294.964 40.8369 271.41 63.1784 247.926 85.5929C235.038 97.894 222.274 110.325 209.435 122.678C208.073 123.989 206.587 125.173 204.958 126.181C214.401 105.743 232.786 82.1762 249.896 69.0043C272.196 51.8371 294.744 34.993 317.675 18.0858C318.165 18.1618 318.489 18.465 318.489 18.465Z" fill="#1879E9"/>
<path d="M328.49 296.489C339.463 286.026 350.505 276.122 360.807 265.5C370.33 255.681 382.062 251.541 395.067 250.127C402.085 249.364 409.191 249.406 416.557 250.173C380.963 264.379 350.976 287.717 318.5 306.809C321.746 303.451 324.992 300.094 328.49 296.489Z" fill="#1879EA"/>
<path d="M166.951 80.9277C171.782 67.0686 176.515 53.604 181.563 39.2434C186.367 50.1854 168.135 123.434 154.995 144.521C158.948 123.455 162.901 102.388 166.951 80.9277Z" fill="#1878E8"/>
<path d="M416.011 82.9162C407.674 91.6834 394.498 85.9169 391.036 74.2552C390.858 73.9274 390.9 73.9406 391.21 73.9052C391.654 73.1362 391.788 72.4025 391.922 71.6688C393.675 68.8233 395.427 65.9778 397.468 62.9628C399.566 61.5672 401.375 60.3411 403.704 59.436C405.865 59.5226 407.508 59.2883 409.15 59.054C412.629 62.0845 416.109 65.1149 419.4 68.6591C419.638 71.7986 420.064 74.4244 420.49 77.0502C420.503 77.5784 420.517 78.1065 420.118 78.8142C418.474 80.3012 417.243 81.6087 416.011 82.9162Z" fill="#DE6406"/>
<path d="M405.613 232.067C404.48 228.792 403.688 225.583 402.88 221.999C406.67 218.217 410.474 214.81 414.453 211.136C420.618 209.445 425.291 211.423 428.921 217.026C429.402 219.115 429.779 220.543 430.155 221.971C431.815 228.432 426.807 236.611 420.503 237.207C415.349 235.576 410.651 233.855 405.613 232.067Z" fill="#FB0553"/>
<path d="M391.544 71.8466C391.788 72.4025 391.654 73.1362 391.226 73.9182C391.011 73.3192 391.088 72.6718 391.544 71.8466Z" fill="#47704C"/>
<path d="M309.994 313.009C310.176 312.824 310.327 312.603 310.52 312.426C310.564 312.385 310.751 312.499 310.872 312.542C310.685 312.668 310.498 312.794 310.125 312.938C309.939 312.955 309.979 312.988 309.994 313.009Z" fill="#197AEC"/>
<path d="M246.576 223.478C246.851 222.996 247.321 222.77 247.791 222.543C247.76 222.99 247.728 223.437 247.457 224.04C247.069 224.042 246.92 223.888 246.576 223.478Z" fill="#187AEC"/>
<path d="M318.009 18.0037C318.126 17.6659 318.399 17.4862 318.671 17.3066C318.715 17.5546 318.758 17.8026 318.645 18.2578C318.489 18.465 318.165 18.1618 318.009 18.0037Z" fill="#1879E9"/>
<path d="M111.632 331.533C111.856 331.249 112.216 331.165 112.576 331.081C112.574 331.333 112.572 331.586 112.333 331.962C112.097 332.086 111.768 331.733 111.632 331.533Z" fill="#197BEE"/>
<path d="M135.987 337.042C136.007 337.031 135.8 336.882 135.8 336.882C135.8 336.882 135.878 336.948 135.912 337.022C135.946 337.095 135.967 337.053 135.987 337.042Z" fill="#197AEC"/>
<path d="M663.889 279.039C661.009 276.258 658.128 273.478 655.11 270.028C653.304 267.59 651.637 265.821 649.969 264.052C649.969 264.052 649.99 264.01 649.948 263.698C649.271 262.944 648.637 262.503 648.003 262.062C648.003 262.062 647.948 262.051 647.926 261.706C647.278 260.931 646.653 260.501 646.028 260.071C646.028 260.071 645.938 260.055 645.94 259.715C645.605 258.94 645.268 258.504 644.931 258.069C644.931 258.069 645 258.004 644.813 257.766C644.047 257.365 643.469 257.202 642.89 257.039C640.011 254.26 637.132 251.481 634.114 248.032C632.637 245.926 631.298 244.489 629.96 243.052C629.96 243.052 629.997 243.017 629.948 242.696C629.243 241.941 628.587 241.508 627.931 241.075C627.657 240.885 627.384 240.695 627.007 239.954C626.284 238.96 625.665 238.518 625.046 238.076C625.046 238.076 624.936 238.06 624.938 237.712C624.603 236.932 624.267 236.5 623.93 236.068C623.93 236.068 623.998 236.003 623.812 235.766C623.047 235.365 622.469 235.202 621.89 235.039C619.344 232.592 616.798 230.146 614.114 227.03C612.617 224.921 611.258 223.483 609.899 222.044C609.572 221.98 609.314 221.81 608.948 221.076C608.492 220.441 608.213 220.264 607.935 220.087C607.66 219.894 607.386 219.701 607.007 218.955C606.284 217.96 605.665 217.518 605.046 217.076C605.046 217.076 604.936 217.06 604.938 216.712C604.603 215.932 604.267 215.5 603.93 215.068C603.93 215.068 603.998 215.003 603.812 214.766C603.047 214.366 602.469 214.202 601.89 214.039C599.344 211.593 596.798 209.147 594.115 206.032C592.308 203.593 590.638 201.822 588.969 200.052C588.969 200.052 589.001 200.016 588.89 199.802C588.593 199.305 588.334 199.129 588.002 199.06C588.002 199.06 587.947 199.048 587.942 198.719C587.577 197.965 587.217 197.54 586.858 197.115C586.858 197.115 586.969 197.142 586.84 196.81C586.442 195.607 586.171 194.735 585.986 193.607C586.368 193.15 586.665 192.952 586.961 192.753C590.555 196.268 594.15 199.782 597.918 203.926C598.741 205.02 599.389 205.485 600.037 205.95C600.037 205.95 600.005 205.995 600.052 206.309C600.759 207.059 601.417 207.495 602.076 207.931C602.666 208.43 603.256 208.929 603.954 209.995C604.402 211.018 604.74 211.474 605.079 211.929C605.079 211.929 605 211.961 605.157 212.193C605.821 212.622 606.327 212.818 606.833 213.015C610.804 217.109 614.774 221.202 618.917 225.925C619.738 227.019 620.385 227.484 621.032 227.949C621.032 227.949 621.01 227.991 621.052 228.303C621.729 229.056 622.363 229.497 622.997 229.938C622.997 229.938 623.052 229.949 623.074 230.294C623.722 231.069 624.347 231.499 624.972 231.929C624.972 231.929 625.062 231.945 625.06 232.285C625.395 233.06 625.732 233.496 626.069 233.931C626.069 233.931 626 234 626.157 234.218C626.82 234.63 627.326 234.824 627.831 235.019C631.469 238.778 635.106 242.537 638.918 246.925C639.74 248.019 640.389 248.485 641.037 248.95C641.037 248.95 641.005 248.996 641.049 249.303C641.728 250.053 642.363 250.495 642.997 250.938C642.997 250.938 643.052 250.949 643.075 251.294C643.723 252.07 644.348 252.5 644.974 252.93C644.974 252.93 645.061 252.945 645.064 253.309C645.734 254.423 646.399 255.174 647.065 255.925C647.065 255.925 646.999 255.995 647.156 256.215C647.82 256.629 648.326 256.824 648.832 257.018C652.136 260.444 655.44 263.87 658.92 267.931C659.764 269.029 660.433 269.492 661.101 269.956C661.428 270.02 661.686 270.19 662.043 270.92C662.394 271.673 662.656 271.862 662.998 271.94C662.998 271.94 663.052 271.951 663.074 272.296C663.723 273.07 664.348 273.5 664.974 273.93C664.974 273.93 665.06 273.944 665.071 274.323C666.037 275.442 666.992 276.183 667.947 276.924C667.947 276.924 668.063 276.936 668.076 277.298C668.67 278.112 669.25 278.564 669.831 279.016C671.807 281.113 673.782 283.21 675.933 285.939C676.777 287.035 677.446 287.498 678.115 287.962C678.437 288.02 678.689 288.184 678.982 289.005C679.744 290.022 680.396 290.488 681.048 290.954C681.048 290.954 681.016 291.004 681.131 291.212C681.532 291.599 681.818 291.778 682.104 291.957C682.104 291.957 682.445 291.987 682.774 292.339C684.422 293.465 685.742 294.238 687.046 294.986C687.031 294.961 686.971 294.965 686.654 295.249C687.234 296.543 688.13 297.552 689.229 298.699C689.906 298.952 690.38 299.068 690.925 299.494C691.698 300.717 692.399 301.63 693.101 302.542C693.691 302.001 694.282 301.459 694.872 300.918C693.619 300.245 692.365 299.572 691.071 298.564C690.401 297.443 689.773 296.657 689.093 295.532C688.362 294.461 687.684 293.729 687.002 292.999C687 293 687.003 292.995 687 292.645C686.354 291.52 685.71 290.745 685.034 289.98C685.002 289.991 685.034 289.931 685.025 289.593C684.403 288.495 683.79 287.735 683.177 286.974C683.177 286.974 683.034 286.544 682.983 285.964C681.931 284.27 680.931 283.156 679.93 282.043C679.93 282.043 679.996 282.004 679.984 281.674C679.297 280.577 678.622 279.811 677.947 279.044C677.947 279.044 678 279 677.988 278.666C677.306 277.571 676.637 276.81 675.967 276.049C675.967 276.049 675.99 276.009 675.984 275.664C675.316 274.566 674.655 273.812 673.995 273.059C673.995 273.059 673.952 273.044 673.966 272.68C673.38 271.536 672.779 270.755 672.177 269.974C672.177 269.974 672.034 269.544 671.983 268.964C670.932 267.27 669.931 266.156 668.931 265.042C668.931 265.042 668.996 265.004 668.984 264.673C668.297 263.577 667.622 262.811 666.947 262.044C666.947 262.044 667 262 666.988 261.666C666.307 260.571 665.637 259.81 664.967 259.05C664.967 259.05 664.99 259.009 664.984 258.664C664.316 257.566 663.655 256.812 662.995 256.059C662.995 256.059 662.952 256.044 662.966 255.68C662.38 254.536 661.778 253.755 661.177 252.975C661.177 252.975 661.034 252.544 660.983 251.964C659.931 250.27 658.931 249.156 657.93 248.042C657.93 248.042 657.996 248.004 657.984 247.673C657.295 246.576 656.619 245.81 655.942 245.043C655.942 245.043 656 245.001 655.988 244.669C655.306 243.574 654.636 242.812 653.967 242.049C653.967 242.049 653.99 242.009 653.984 241.663C653.312 240.563 652.647 239.809 651.982 239.054C651.982 239.054 651.97 239.028 651.975 238.678C651.377 237.546 650.775 236.764 650.172 235.981C649.525 234.877 648.878 233.773 648.08 232.02C646.93 230.261 645.932 229.152 644.934 228.042C644.934 228.042 644.997 228.002 644.985 227.672C644.3 226.576 643.628 225.811 642.955 225.046C642.955 225.046 643 225 642.989 224.663C642.313 223.569 641.647 222.812 640.982 222.054C640.982 222.054 640.97 222.028 640.974 221.654C639.714 219.509 638.449 217.739 637.185 215.968C637.185 215.968 637.035 215.532 636.982 214.951C635.93 213.261 634.932 212.152 633.934 211.042C633.934 211.042 633.997 211.002 633.985 210.672C633.3 209.576 632.628 208.811 631.955 208.046C631.955 208.046 632 208 631.989 207.663C631.313 206.569 630.647 205.812 629.982 205.054C629.982 205.054 629.97 205.028 629.974 204.667C629.316 203.558 628.655 202.808 627.995 202.059C627.995 202.059 627.951 202.043 627.968 201.677C627.618 200.554 627.252 199.796 626.886 199.037C626.557 198.973 626.3 198.801 626.022 197.946C624.933 196.262 623.938 195.153 622.943 194.044C622.943 194.044 623 194.001 622.988 193.668C622.304 192.572 621.631 191.81 620.958 191.047C620.958 191.047 620.998 191.002 620.986 190.663C620.308 189.567 619.641 188.809 618.974 188.052C618.974 188.052 618.981 188.018 618.98 187.658C618.581 186.489 618.183 185.681 617.816 184.543C618.519 183.426 619.191 182.639 619.862 181.851C619.889 182.025 619.915 182.199 620.09 182.942C621.105 184.341 621.971 185.171 622.838 186.001C622.838 186.001 622.969 186.438 623.022 186.982C623.662 188.02 624.248 188.514 624.834 189.009C624.834 189.009 624.967 189.442 625.021 189.984C625.661 191.022 626.247 191.518 626.832 192.013C626.832 192.013 626.966 192.445 627.019 192.987C627.657 194.026 628.242 194.523 628.828 195.02C629.475 196.123 630.122 197.227 630.918 198.97C631.991 200.739 632.915 201.867 633.839 202.996C633.839 202.996 633.971 203.436 634.025 203.982C634.664 205.021 635.249 205.515 635.834 206.009C635.834 206.009 635.966 206.442 636.02 206.985C636.658 208.024 637.244 208.52 637.829 209.017C637.829 209.017 637.965 209.446 638.018 209.987C638.657 211.026 639.242 211.523 639.828 212.02C639.828 212.02 639.967 212.452 640.019 212.993C640.655 214.032 641.239 214.529 641.823 215.026C641.823 215.026 641.966 215.456 642.015 216.027C642.989 217.729 643.914 218.861 644.84 219.993C644.84 219.993 644.973 220.437 645.028 220.983C645.668 222.02 646.253 222.511 646.837 223.001C646.837 223.001 646.969 223.438 647.022 223.982C647.662 225.02 648.248 225.515 648.834 226.009C648.834 226.009 648.966 226.442 649.02 226.985C649.658 228.025 650.243 228.523 650.828 229.02C650.828 229.02 650.967 229.452 651.01 229.994C651.409 231.014 651.765 231.493 652.12 231.971C652.446 232.027 652.7 232.193 652.973 233.033C653.989 234.73 654.914 235.864 655.839 236.997C655.839 236.997 655.972 237.438 656.028 237.984C656.668 239.02 657.253 239.511 657.837 240.001C657.837 240.001 657.968 240.438 658.022 240.982C658.662 242.02 659.248 242.515 659.834 243.009C659.834 243.009 659.966 243.442 660.02 243.985C660.658 245.024 661.244 245.521 661.829 246.017C661.829 246.017 661.966 246.448 662.018 246.99C662.654 248.03 663.239 248.528 663.823 249.026C663.823 249.026 663.966 249.456 664.015 250.027C664.989 251.729 665.914 252.862 666.84 253.994C666.84 253.994 666.972 254.437 667.028 254.983C667.668 256.02 668.252 256.511 668.837 257.002C668.837 257.002 668.968 257.438 669.021 257.982C669.661 259.02 670.248 259.514 670.834 260.009C670.834 260.009 670.966 260.442 671.02 260.985C671.658 262.024 672.244 262.52 672.829 263.017C673.478 264.117 674.128 265.217 674.924 266.927C675.652 268.035 676.233 268.534 676.813 269.032C676.813 269.032 676.965 269.467 677.016 270.039C677.991 271.739 678.915 272.867 679.839 273.996C679.839 273.996 679.971 274.436 680.025 274.982C680.664 276.021 681.249 276.515 681.834 277.009C681.834 277.009 681.966 277.442 682.02 277.985C682.658 279.024 683.244 279.52 683.829 280.017C683.829 280.017 683.965 280.446 684.018 280.987C684.657 282.026 685.242 282.523 685.828 283.02C685.828 283.02 685.967 283.453 686.019 283.995C686.652 285.035 687.233 285.534 687.813 286.032C687.813 286.032 687.965 286.467 688.016 287.039C688.991 288.74 689.914 289.87 690.838 291.001C690.838 291.001 690.969 291.437 691.022 291.982C691.662 293.02 692.248 293.514 692.834 294.009C692.834 294.009 692.966 294.44 693.025 294.993C693.714 296.036 694.343 296.525 694.985 297.009C694.999 297.005 694.985 297.027 694.991 297.376C695.649 298.45 696.301 299.175 697.255 299.926C697.758 299.938 697.959 299.924 698.032 300.209C697.932 301.166 697.962 301.823 698.002 302.822C699.095 304.877 700.177 306.59 701.259 308.303C701.824 307.9 702.389 307.497 702.954 307.094C701.637 305.399 700.32 303.705 699.027 301.699C698.729 300.913 698.406 300.44 698.038 299.581C697.24 297.703 696.487 296.209 695.812 294.314C695.642 292.963 695.396 292.014 695.149 291.064C692.778 276.687 685.101 264.08 681.48 250.104C680.126 244.879 678.054 239.839 676.517 234.313C676.781 233.257 676.837 232.604 676.893 231.951C671.047 216.212 665.091 200.513 659.422 184.711C657.752 180.06 656.892 175.118 655.603 169.786C657.168 169.155 658.79 169.048 660.412 168.941C660.96 171.577 661.327 174.266 662.09 176.839C664.701 185.632 667.209 194.468 670.202 203.134C674.907 216.756 680.166 230.188 684.845 243.818C692.078 264.885 699.016 286.053 706.109 307.168C706.309 307.763 706.846 308.244 707.418 308.965C706.532 309.744 705.454 310.338 703.848 310.737C703.223 311.055 703.127 311.566 703.031 312.078C700.954 314.021 698.878 315.964 696.473 317.964C667.838 299.264 639.546 280.485 611.218 261.76C595.748 251.534 580.217 241.4 564.41 230.705C565.13 229.096 566.154 228.006 567.179 226.917C586.64 239.888 606.081 252.89 625.568 265.823C643.132 277.48 660.727 289.09 678.369 300.63C680.076 301.746 682.208 302.213 684.551 303.285C686.161 308.112 690.96 308.288 693.769 310.922C692.194 306.018 689.437 302.302 684.225 300.945C680.901 297.53 677.577 294.116 674.114 290.032C672.639 287.926 671.301 286.49 669.964 285.054C669.964 285.054 669.998 285.027 669.888 284.806C669.592 284.303 669.333 284.128 669.002 284.06C669.002 284.06 668.948 284.049 668.926 283.704C668.277 282.93 667.652 282.5 667.026 282.07C667.026 282.07 666.939 282.056 666.926 281.668C665.905 280.533 664.897 279.786 663.889 279.039ZM699.102 310.288C699.189 310.335 699.276 310.382 699.363 310.428C699.248 310.281 699.132 310.134 698.97 309.484C698.66 309.227 698.351 308.969 698.041 308.712C697.912 308.989 697.783 309.266 697.654 309.543C698.098 309.701 698.542 309.86 699.102 310.288ZM695.375 304.338C695.119 304.414 694.863 304.49 694.607 304.566C694.884 304.85 695.161 305.133 695.439 305.417C695.521 305.163 695.603 304.908 695.375 304.338Z" fill="#2483F1"/>
<path d="M484.393 48.147C481.633 49.2572 478.962 50.911 476.097 51.3805C465.489 53.1192 463.066 50.271 460.25 42.2409C457.866 35.4448 459.177 31.3042 464.774 26.8294C467.843 24.3764 477 24.2104 480.925 26.5317C485.854 29.4467 485.434 34.8886 486.985 39.3939C487.299 40.3048 487.427 41.2797 487.448 42.5802C483.682 43.2338 484.139 45.7459 484.393 48.147Z" fill="#E2AA07"/>
<path d="M614.145 56.0961C606.784 60.5146 599.922 56.6978 595.447 50.0831C591.048 43.581 596.096 39.9184 596.618 35.0011C596.688 34.341 597.627 33.7203 598.25 33.1803C602.488 29.5055 613.989 30.038 617.66 34.056C623.264 40.1892 623.164 47.4679 616.812 53.5718C615.533 54.6285 614.839 55.3623 614.145 56.0961Z" fill="#B0A532"/>
<path d="M632.03 86.1788C635.183 86.3791 638.39 86.281 641.477 86.8445C647.139 87.878 650.53 91.8111 651.434 97.1759C652.194 101.684 651.509 106.361 647.702 109.764C646.114 111.184 644.37 112.43 642.176 113.627C640.406 113.684 639.156 113.869 637.906 114.054C628.037 113.836 622.586 105.797 625.308 95.4089C625.637 94.1543 626.234 92.97 626.863 91.1228C627.083 90.328 627.145 90.1636 627.569 89.9923C629.297 88.7165 630.663 87.4477 632.03 86.1788Z" fill="#06C1DB"/>
<path d="M488.114 135.857C486.219 136.318 484.236 136.559 482.444 137.276C471.985 141.466 464.238 136.935 462.941 125.809C462.81 124.687 462.371 123.601 462.443 122.065C463.858 119.395 464.904 117.158 465.951 114.92C474.035 107.476 485.261 110.444 489.615 121.867C489.499 124.37 489.702 126.266 489.905 128.162C489.662 128.575 489.418 128.989 488.792 129.818C488.31 132.109 488.212 133.983 488.114 135.857Z" fill="#6F6BEA"/>
<path d="M660.441 168.616C658.79 169.048 657.168 169.155 655.31 169.574C649.53 171.704 646.185 168.289 643.137 164.634C637.717 158.136 639.211 149.172 646.938 144.822C648.482 144.114 649.338 143.505 650.195 142.895C655.748 141.109 662.152 143.703 664.866 148.838C668.524 155.76 667.553 162.944 662.428 166.846C661.782 167.337 661.123 167.809 660.441 168.616Z" fill="#4EAC70"/>
<path d="M538.927 76.9167C542.792 72.0546 547.857 70.7155 553.559 72.5833C556.275 73.4731 558.664 75.3647 561.448 77.4249C562.416 81.7283 563.137 85.4094 563.859 89.0905C562.95 90.8542 562.041 92.618 560.619 94.6923C558.038 96.0195 555.968 97.0361 553.899 98.0527C544.557 101.2 536.059 95.1853 536.014 85.3884C536.009 84.2288 536.036 83.069 536.458 81.408C537.554 79.5766 538.241 78.2466 538.927 76.9167Z" fill="#058DDB"/>
<path d="M587.086 192.419C586.665 192.952 586.368 193.15 585.728 193.814C585.266 195.151 585.148 196.022 585.029 196.894C583.936 197.258 582.562 197.321 581.793 198.035C576.401 203.037 571.204 199.468 566.359 197.336C564.65 196.585 564.298 193.107 562.929 191.153C559.817 186.712 561.537 182.857 564.315 178.48C565.537 177.046 566.407 176.113 567.276 175.179C567.894 174.954 568.539 174.785 569.125 174.494C574.61 171.775 580.453 172.249 584.312 176.326C588.139 180.369 590.733 186.022 587.086 192.419Z" fill="#099D0A"/>
<path d="M619.978 181.553C619.191 182.639 618.519 183.426 617.62 184.571C617.393 184.927 617.03 185.082 617.03 185.082C613.547 185.982 609.348 188.53 606.75 187.399C602.784 185.674 598.797 181.966 596.87 178.082C594.188 172.679 596.277 167.095 601.233 162.416C602.915 161.397 604.047 160.702 605.179 160.007C607.408 160.215 609.635 160.577 611.865 160.6C616.875 160.651 624.053 169.255 622.832 174.134C622.22 176.583 621.025 178.886 619.978 181.553Z" fill="#0BC40B"/>
<path d="M566.923 175.05C566.407 176.113 565.537 177.046 564.385 178.136C558.324 175.273 552.452 172.419 546.785 169.204C532.112 160.879 517.534 152.386 502.906 143.98C498.226 141.29 493.508 138.664 488.461 135.933C488.212 133.983 488.31 132.109 488.715 130.052C500.319 136.569 511.565 143.356 522.927 149.946C537.426 158.355 552.018 166.603 566.923 175.05Z" fill="#2583F1"/>
<path d="M605.097 159.658C604.047 160.702 602.915 161.397 601.418 162.134C592.76 150.016 584.498 137.836 576.166 125.704C570.502 117.456 564.831 109.209 558.935 101.128C557.978 99.8168 555.833 99.3727 554.068 98.2902C555.968 97.0361 558.038 96.0195 560.463 94.9929C573.641 113.58 586.467 132.174 599.279 150.777C601.223 153.599 603.104 156.464 605.097 159.658Z" fill="#308AF1"/>
<path d="M538.611 76.8095C538.241 78.2466 537.554 79.5766 536.524 80.9684C519.476 70.0515 502.772 59.0712 486.055 48.1108C485.811 47.9509 485.405 48.0386 484.734 48.0789C484.139 45.7459 483.682 43.2338 487.647 42.9104C495.303 47.9064 502.515 53.0064 509.846 57.9281C519.279 64.261 528.808 70.4509 538.611 76.8095Z" fill="#2483F1"/>
<path d="M465.636 114.821C464.904 117.158 463.858 119.395 462.5 121.643C463.452 118.785 461.775 117.598 459.623 115.974C445.229 105.11 430.999 94.0283 416.363 82.9667C417.243 81.6087 418.474 80.3012 420.099 79.0167C432.258 88.339 444.032 97.6276 455.783 106.945C458.997 109.493 462.144 112.127 465.636 114.821Z" fill="#2583F1"/>
<path d="M631.727 85.9783C630.663 87.4477 629.297 88.7165 627.506 89.6519C627.036 88.8587 626.991 88.3989 626.946 87.9392C624.729 83.1378 622.257 78.4344 620.362 73.5092C618.209 67.9147 616.572 62.1219 614.428 56.2557C614.839 55.3623 615.533 54.6285 616.524 53.7661C620.528 61.8112 624.235 69.9854 627.945 78.1578C629.099 80.7004 630.265 83.238 631.727 85.9783Z" fill="#2583F1"/>
<path d="M650.089 142.511C649.338 143.505 648.482 144.114 647.306 144.766C643.985 136.327 640.931 127.864 638.039 119.346C637.56 117.937 637.788 116.288 637.798 114.402C639.156 113.869 640.406 113.684 641.874 113.775C644.722 123.41 647.352 132.769 650.089 142.511Z" fill="#2583F1"/>
<path d="M732.848 342.616C729.159 339.525 725.528 336.086 721.961 332.287C725.652 335.374 729.279 338.821 732.848 342.616Z" fill="#F9F9FA"/>
<path d="M563.913 88.6427C563.137 85.4094 562.416 81.7283 561.69 77.7248C562.446 80.9998 563.207 84.5973 563.913 88.6427Z" fill="#CAD4DB"/>
<path d="M637.227 216.301C638.449 217.739 639.714 219.509 640.962 221.647C639.72 220.221 638.495 218.427 637.227 216.301Z" fill="#2C87F1"/>
<path d="M420.337 76.6129C420.064 74.4244 419.638 71.7986 419.58 68.9267C420.027 71.1789 420.106 73.6772 420.337 76.6129Z" fill="#C4C1BB"/>
<path d="M623.071 194.341C623.938 195.153 624.933 196.262 625.933 197.727C625.024 196.934 624.111 195.787 623.071 194.341Z" fill="#2C87F1"/>
<path d="M679.79 273.679C678.915 272.867 677.991 271.739 677.065 270.264C677.956 271.066 678.849 272.215 679.79 273.679Z" fill="#2C87F1"/>
<path d="M669.063 265.34C669.931 266.156 670.932 267.27 671.941 268.741C671.031 267.945 670.113 266.791 669.063 265.34Z" fill="#2C87F1"/>
<path d="M489.959 127.72C489.702 126.266 489.499 124.37 489.575 122.227C489.907 123.746 489.96 125.512 489.959 127.72Z" fill="#D5DBE1"/>
<path d="M645.065 228.339C645.932 229.152 646.93 230.261 647.933 231.726C647.023 230.933 646.11 229.785 645.065 228.339Z" fill="#2C87F1"/>
<path d="M666.791 253.677C665.914 252.862 664.989 251.729 664.057 250.25C664.948 251.054 665.845 252.207 666.791 253.677Z" fill="#2C87F1"/>
<path d="M658.063 248.34C658.931 249.156 659.931 250.27 660.941 251.741C660.031 250.944 659.113 249.791 658.063 248.34Z" fill="#2C87F1"/>
<path d="M633.79 202.68C632.915 201.867 631.991 200.739 631.065 199.264C631.956 200.066 632.849 201.215 633.79 202.68Z" fill="#2C87F1"/>
<path d="M680.063 282.34C680.931 283.156 681.931 284.27 682.941 285.741C682.031 284.945 681.113 283.791 680.063 282.34Z" fill="#2C87F1"/>
<path d="M655.79 236.679C654.914 235.864 653.989 234.73 653.057 233.25C653.948 234.055 654.845 235.209 655.79 236.679Z" fill="#2C87F1"/>
<path d="M634.065 211.339C634.932 212.152 635.93 213.261 636.933 214.726C636.023 213.933 635.11 212.785 634.065 211.339Z" fill="#2C87F1"/>
<path d="M690.79 290.683C689.914 289.87 688.991 288.74 688.065 287.264C688.957 288.067 689.85 289.217 690.79 290.683Z" fill="#2C87F1"/>
<path d="M644.791 219.676C643.914 218.861 642.989 217.729 642.057 216.25C642.948 217.054 643.845 218.207 644.791 219.676Z" fill="#2C87F1"/>
<path d="M408.711 59.0068C407.508 59.2883 405.865 59.5226 404.047 59.4132C405.338 59.0328 406.805 58.9962 408.711 59.0068Z" fill="#D5DBE1"/>
<path d="M667.854 276.638C666.992 276.183 666.037 275.442 665.076 274.366C665.967 274.805 666.864 275.579 667.854 276.638Z" fill="#2C87F1"/>
<path d="M622.785 185.676C621.971 185.171 621.105 184.341 620.141 183.202C620.939 183.712 621.835 184.531 622.785 185.676Z" fill="#2C87F1"/>
<path d="M694.972 297.014C694.343 296.525 693.714 296.036 693.06 295.216C693.407 294.704 693.777 294.521 694.612 294.352C695.253 294.511 695.428 294.657 695.338 295.106C695.039 295.944 695.005 296.479 694.972 297.014Z" fill="#2C87F1"/>
<path d="M667.067 262.333C667.622 262.811 668.297 263.577 668.963 264.705C668.365 264.252 667.776 263.436 667.067 262.333Z" fill="#2C87F1"/>
<path d="M621.075 191.336C621.631 191.81 622.304 192.572 622.965 193.695C622.366 193.245 621.779 192.434 621.075 191.336Z" fill="#2C87F1"/>
<path d="M672.206 270.281C672.779 270.755 673.38 271.536 673.96 272.658C673.371 272.196 672.803 271.392 672.206 270.281Z" fill="#2C87F1"/>
<path d="M643.073 225.335C643.628 225.811 644.3 226.576 644.964 227.703C644.367 227.25 643.778 226.437 643.073 225.335Z" fill="#2C87F1"/>
<path d="M647.162 255.609C646.399 255.174 645.734 254.423 645.069 253.352C645.8 253.786 646.53 254.539 647.162 255.609Z" fill="#2C87F1"/>
<path d="M661.206 253.282C661.778 253.755 662.38 254.536 662.96 255.658C662.371 255.196 661.803 254.392 661.206 253.282Z" fill="#2C87F1"/>
<path d="M656.064 245.331C656.619 245.81 657.295 246.576 657.963 247.705C657.365 247.252 656.775 246.436 656.064 245.331Z" fill="#2C87F1"/>
<path d="M665.081 259.338C665.637 259.81 666.307 260.571 666.964 261.691C666.367 261.243 665.781 260.435 665.081 259.338Z" fill="#2C87F1"/>
<path d="M617.131 185.369C617.03 185.082 617.393 184.927 617.589 184.9C618.183 185.681 618.581 186.489 618.963 187.66C618.374 187.234 617.803 186.444 617.131 185.369Z" fill="#2C87F1"/>
<path d="M663.102 256.347C663.655 256.812 664.316 257.566 664.963 258.674C664.368 258.232 663.788 257.434 663.102 256.347Z" fill="#2C87F1"/>
<path d="M641.093 222.343C641.647 222.812 642.313 223.569 642.965 224.684C642.369 224.238 641.786 223.435 641.093 222.343Z" fill="#2C87F1"/>
<path d="M685.025 289.593C685.034 289.931 684.592 289.87 684.37 289.847C683.844 289.079 683.539 288.334 683.206 287.282C683.79 287.735 684.403 288.495 685.025 289.593Z" fill="#2C87F1"/>
<path d="M632.073 208.335C632.628 208.811 633.3 209.576 633.964 210.703C633.367 210.25 632.778 209.437 632.073 208.335Z" fill="#2C87F1"/>
<path d="M628.101 202.347C628.655 202.808 629.316 203.558 629.961 204.661C629.365 204.221 628.786 203.428 628.101 202.347Z" fill="#2C87F1"/>
<path d="M650.205 236.288C650.775 236.764 651.377 237.546 651.962 238.672C651.375 238.208 650.806 237.401 650.205 236.288Z" fill="#2C87F1"/>
<path d="M619.086 188.34C619.641 188.809 620.308 189.567 620.963 190.682C620.366 190.236 619.782 189.432 619.086 188.34Z" fill="#2C87F1"/>
<path d="M678.067 279.333C678.622 279.811 679.297 280.577 679.963 281.705C679.365 281.252 678.776 280.437 678.067 279.333Z" fill="#2C87F1"/>
<path d="M676.081 276.338C676.637 276.81 677.306 277.571 677.964 278.691C677.367 278.243 676.781 277.435 676.081 276.338Z" fill="#2C87F1"/>
<path d="M630.093 205.343C630.647 205.812 631.313 206.569 631.965 207.684C631.369 207.238 630.786 206.435 630.093 205.343Z" fill="#2C87F1"/>
<path d="M652.092 239.342C652.647 239.809 653.312 240.563 653.963 241.673C653.366 241.23 652.784 240.43 652.092 239.342Z" fill="#2C87F1"/>
<path d="M676.635 232.106C676.837 232.604 676.781 233.257 676.443 233.953C676.232 233.417 676.305 232.84 676.635 232.106Z" fill="#2583F1"/>
<path d="M674.102 273.347C674.655 273.812 675.316 274.566 675.963 275.674C675.368 275.232 674.789 274.434 674.102 273.347Z" fill="#2C87F1"/>
<path d="M654.081 242.338C654.636 242.812 655.306 243.574 655.964 244.696C655.368 244.246 654.782 243.437 654.081 242.338Z" fill="#2C87F1"/>
<path d="M626.805 191.72C626.247 191.518 625.661 191.022 625.056 190.208C625.618 190.402 626.198 190.915 626.805 191.72Z" fill="#2C87F1"/>
<path d="M635.806 205.717C635.249 205.515 634.664 205.021 634.061 204.209C634.621 204.402 635.199 204.914 635.806 205.717Z" fill="#2C87F1"/>
<path d="M601.955 207.667C601.417 207.495 600.759 207.059 600.075 206.293C600.645 206.443 601.239 206.923 601.955 207.667Z" fill="#2C87F1"/>
<path d="M637.803 208.724C637.244 208.52 636.658 208.024 636.055 207.209C636.616 207.403 637.197 207.917 637.803 208.724Z" fill="#2C87F1"/>
<path d="M624.885 231.66C624.347 231.499 623.722 231.069 623.08 230.322C623.641 230.466 624.22 230.928 624.885 231.66Z" fill="#2C87F1"/>
<path d="M622.903 229.666C622.363 229.497 621.729 229.056 621.073 228.292C621.637 228.444 622.222 228.919 622.903 229.666Z" fill="#2C87F1"/>
<path d="M650.802 228.726C650.243 228.523 649.658 228.025 649.055 227.209C649.617 227.404 650.197 227.919 650.802 228.726Z" fill="#2C87F1"/>
<path d="M620.925 227.674C620.385 227.484 619.738 227.019 619.064 226.22C619.631 226.391 620.225 226.895 620.925 227.674Z" fill="#2C87F1"/>
<path d="M648.805 225.717C648.248 225.515 647.662 225.02 647.057 224.207C647.618 224.4 648.197 224.912 648.805 225.717Z" fill="#2C87F1"/>
<path d="M628.803 194.726C628.242 194.523 627.657 194.026 627.055 193.21C627.618 193.405 628.198 193.919 628.803 194.726Z" fill="#2C87F1"/>
<path d="M646.807 222.711C646.253 222.511 645.668 222.02 645.066 221.212C645.625 221.403 646.201 221.912 646.807 222.711Z" fill="#2C87F1"/>
<path d="M626.931 199.372C627.252 199.796 627.618 200.554 627.963 201.655C627.619 201.234 627.298 200.471 626.931 199.372Z" fill="#2C87F1"/>
<path d="M641.802 214.733C641.239 214.529 640.655 214.032 640.06 213.217C640.625 213.412 641.203 213.926 641.802 214.733Z" fill="#2C87F1"/>
<path d="M639.803 211.726C639.242 211.523 638.657 211.026 638.055 210.21C638.618 210.405 639.198 210.919 639.803 211.726Z" fill="#2C87F1"/>
<path d="M599.929 205.676C599.389 205.485 598.741 205.02 598.065 204.221C598.632 204.392 599.227 204.896 599.929 205.676Z" fill="#2C87F1"/>
<path d="M626.64 88.0728C626.991 88.3989 627.036 88.8587 627.145 89.6588C627.145 90.1636 627.083 90.328 626.963 90.7509C626.715 90.0751 626.524 89.1408 626.64 88.0728Z" fill="#FBFBFC"/>
<path d="M681.806 276.717C681.249 276.515 680.664 276.021 680.061 275.209C680.621 275.402 681.199 275.914 681.806 276.717Z" fill="#2C87F1"/>
<path d="M669.811 278.732C669.25 278.564 668.67 278.112 668.083 277.356C668.648 277.518 669.22 277.983 669.811 278.732Z" fill="#2C87F1"/>
<path d="M683.803 279.724C683.244 279.52 682.658 279.024 682.055 278.209C682.616 278.403 683.197 278.917 683.803 279.724Z" fill="#2C87F1"/>
<path d="M685.803 282.726C685.242 282.523 684.657 282.026 684.055 281.21C684.618 281.405 685.198 281.919 685.803 282.726Z" fill="#2C87F1"/>
<path d="M687.797 285.738C687.233 285.534 686.652 285.035 686.061 284.219C686.627 284.416 687.204 284.93 687.797 285.738Z" fill="#2C87F1"/>
<path d="M677.986 287.692C677.446 287.498 676.777 287.035 676.079 286.234C676.652 286.404 677.254 286.913 677.986 287.692Z" fill="#2C87F1"/>
<path d="M680.937 290.679C680.396 290.488 679.744 290.022 679.065 289.221C679.633 289.392 680.23 289.899 680.937 290.679Z" fill="#2C87F1"/>
<path d="M692.806 293.716C692.248 293.514 691.662 293.02 691.057 292.207C691.618 292.4 692.198 292.912 692.806 293.716Z" fill="#2C87F1"/>
<path d="M664.887 273.661C664.348 273.5 663.723 273.07 663.08 272.323C663.642 272.467 664.221 272.929 664.887 273.661Z" fill="#2C87F1"/>
<path d="M624.806 188.716C624.248 188.514 623.662 188.02 623.057 187.207C623.618 187.4 624.197 187.912 624.806 188.716Z" fill="#2C87F1"/>
<path d="M657.807 239.711C657.253 239.511 656.668 239.02 656.065 238.212C656.624 238.403 657.201 238.912 657.807 239.711Z" fill="#2C87F1"/>
<path d="M659.805 242.717C659.248 242.515 658.662 242.02 658.057 241.207C658.618 241.4 659.197 241.912 659.805 242.717Z" fill="#2C87F1"/>
<path d="M661.803 245.724C661.244 245.521 660.658 245.024 660.055 244.209C660.616 244.404 661.197 244.917 661.803 245.724Z" fill="#2C87F1"/>
<path d="M640.929 248.676C640.389 248.485 639.74 248.019 639.064 247.22C639.632 247.391 640.226 247.896 640.929 248.676Z" fill="#2C87F1"/>
<path d="M663.801 248.732C663.239 248.528 662.654 248.03 662.056 247.213C662.621 247.408 663.2 247.923 663.801 248.732Z" fill="#2C87F1"/>
<path d="M642.902 250.666C642.363 250.495 641.728 250.053 641.072 249.287C641.636 249.44 642.222 249.917 642.902 250.666Z" fill="#2C87F1"/>
<path d="M644.886 252.661C644.348 252.5 643.723 252.07 643.08 251.322C643.642 251.466 644.22 251.929 644.886 252.661Z" fill="#2C87F1"/>
<path d="M668.807 256.712C668.252 256.511 667.668 256.02 667.065 255.212C667.624 255.403 668.201 255.912 668.807 256.712Z" fill="#2C87F1"/>
<path d="M670.805 259.716C670.248 259.514 669.661 259.02 669.056 258.207C669.617 258.4 670.197 258.912 670.805 259.716Z" fill="#2C87F1"/>
<path d="M672.803 262.724C672.244 262.52 671.658 262.024 671.055 261.209C671.616 261.403 672.197 261.917 672.803 262.724Z" fill="#2C87F1"/>
<path d="M676.797 268.738C676.233 268.534 675.652 268.035 675.061 267.219C675.627 267.416 676.204 267.93 676.797 268.738Z" fill="#2C87F1"/>
<path d="M660.973 269.685C660.433 269.492 659.764 269.029 659.066 268.226C659.64 268.396 660.242 268.906 660.973 269.685Z" fill="#2C87F1"/>
<path d="M606.774 212.707C606.327 212.818 605.821 212.622 605.197 212.171C605.625 212.077 606.17 212.239 606.774 212.707Z" fill="#2C87F1"/>
<path d="M721.169 331.997C721.041 331.393 721.211 330.871 721.598 330.175C722.079 330.461 722.344 330.921 722.341 331.678C721.87 332.01 721.668 332.044 721.169 331.997Z" fill="#F9F9FA"/>
<path d="M648.773 256.709C648.326 256.824 647.82 256.629 647.192 256.183C647.618 256.088 648.166 256.244 648.773 256.709Z" fill="#2C87F1"/>
<path d="M627.773 234.71C627.326 234.824 626.82 234.63 626.192 234.184C626.618 234.088 627.166 234.244 627.773 234.71Z" fill="#2C87F1"/>
<path d="M652.062 231.666C651.765 231.493 651.409 231.014 651.051 230.218C651.367 230.387 651.685 230.874 652.062 231.666Z" fill="#2C87F1"/>
<path d="M626.183 233.637C625.732 233.496 625.395 233.06 625.064 232.331C625.479 232.472 625.888 232.907 626.183 233.637Z" fill="#2C87F1"/>
<path d="M605.186 211.63C604.74 211.474 604.402 211.018 604.08 210.26C604.496 210.415 604.895 210.873 605.186 211.63Z" fill="#2C87F1"/>
<path d="M681.996 291.723C681.818 291.778 681.532 291.599 681.14 291.184C681.318 291.129 681.603 291.309 681.996 291.723Z" fill="#2C87F1"/>
<path d="M662.925 271.703C662.656 271.862 662.394 271.673 662.132 271.139C662.39 270.989 662.656 271.176 662.925 271.703Z" fill="#2C87F1"/>
<path d="M464.281 277.439C465.421 277.129 466.775 277.084 468.53 277.106C467.452 277.351 465.973 277.527 464.281 277.439Z" fill="#D5DBE1"/>
<path d="M703.228 311.868C703.127 311.566 703.223 311.055 703.489 310.549C703.581 310.923 703.503 311.291 703.228 311.868Z" fill="#2C87F1"/>
<path d="M568.295 332.4C569.456 331.883 570.869 331.603 572.637 331.246C571.511 331.658 570.029 332.148 568.295 332.4Z" fill="#2583F1"/>
<path d="M583.298 331.399C584.461 330.882 585.875 330.601 587.646 330.246C586.519 330.66 585.034 331.148 583.298 331.399Z" fill="#2583F1"/>
<path d="M593.293 330.414C594.727 330.129 596.422 330.085 598.536 330.101C597.155 330.326 595.354 330.491 593.293 330.414Z" fill="#2583F1"/>
<path d="M464.116 194.594C463.666 184.717 466.383 179.718 473.201 177.881C480.964 175.788 486.925 177.722 490.593 184.098C491.712 186.043 491.571 188.713 491.734 191.732C491.336 193.971 491.211 195.528 491.085 197.086C485.889 206.52 475.078 207.693 467.057 199.018C465.992 197.102 465.054 195.848 464.116 194.594Z" fill="#6999EA"/>
<path d="M567.302 226.542C566.154 228.006 565.13 229.096 564.105 230.544C553.101 238.529 543.102 234.305 539.309 219.882C541.939 218.008 542.521 216.196 540.742 213.9C543.607 211.608 546.472 209.316 549.962 207.344C553.035 207.488 555.484 207.312 557.932 207.136C565.147 209.09 566.945 212.04 567.92 221.331C568.086 222.908 567.607 224.553 567.302 226.542Z" fill="#A0E1A8"/>
<path d="M540.391 213.913C542.521 216.196 541.939 218.008 539.282 219.467C531.775 216.025 524.614 212.527 517.399 209.144C508.873 205.146 500.302 201.247 491.418 197.195C491.211 195.528 491.336 193.971 491.754 192.154C498.588 195.195 505.03 198.718 511.696 201.746C521.057 205.999 530.584 209.883 540.391 213.913Z" fill="#2583F1"/>
<path d="M464.009 194.879C465.054 195.848 465.992 197.102 466.893 198.711C454.828 206.609 442.8 214.153 430.463 221.834C429.779 220.543 429.402 219.115 429.096 217.32C440.745 209.69 452.324 202.427 464.009 194.879Z" fill="#2C87F1"/>
<path d="M684.211 301.219C689.437 302.302 692.194 306.018 693.769 310.922C690.96 308.288 686.161 308.112 684.934 303.266C684.671 302.459 684.434 301.976 684.211 301.219Z" fill="#2C87F1"/>
<path d="M589.097 200.359C590.638 201.822 592.308 203.593 593.968 205.738C592.381 204.297 590.803 202.482 589.097 200.359Z" fill="#2C87F1"/>
<path d="M650.096 264.359C651.637 265.821 653.304 267.59 654.962 269.732C653.376 268.293 651.8 266.48 650.096 264.359Z" fill="#2C87F1"/>
<path d="M629.991 243.388C631.298 244.489 632.637 245.926 633.967 247.737C632.647 246.649 631.335 245.186 629.991 243.388Z" fill="#2C87F1"/>
<path d="M670.002 285.391C671.301 286.49 672.639 287.926 673.967 289.737C672.652 288.65 671.345 287.189 670.002 285.391Z" fill="#2C87F1"/>
<path d="M610.045 222.343C611.258 223.483 612.617 224.921 613.967 226.735C612.702 225.621 611.446 224.132 610.045 222.343Z" fill="#2C87F1"/>
<path d="M557.497 207.086C555.484 207.312 553.035 207.488 550.323 207.39C552.394 207.09 554.728 207.063 557.497 207.086Z" fill="#CAD4DB"/>
<path d="M664.027 279.316C664.897 279.786 665.905 280.533 666.921 281.624C666.008 281.177 665.087 280.385 664.027 279.316Z" fill="#2C87F1"/>
<path d="M585.335 196.986C585.148 196.022 585.266 195.151 585.642 194.072C586.171 194.735 586.442 195.607 586.784 196.819C586.451 197.132 586.046 197.105 585.335 196.986Z" fill="#2C87F1"/>
<path d="M605.128 217.345C605.665 217.518 606.284 217.96 606.901 218.723C606.335 218.567 605.772 218.091 605.128 217.345Z" fill="#2C87F1"/>
<path d="M646.115 260.34C646.653 260.501 647.278 260.931 647.92 261.678C647.359 261.534 646.78 261.072 646.115 260.34Z" fill="#2C87F1"/>
<path d="M667.114 282.339C667.652 282.5 668.277 282.93 668.92 283.677C668.358 283.533 667.779 283.071 667.114 282.339Z" fill="#2C87F1"/>
<path d="M625.128 238.345C625.665 238.518 626.284 238.96 626.901 239.723C626.335 239.567 625.772 239.091 625.128 238.345Z" fill="#2C87F1"/>
<path d="M628.05 241.338C628.587 241.508 629.243 241.941 629.924 242.703C629.356 242.555 628.763 242.078 628.05 241.338Z" fill="#2C87F1"/>
<path d="M648.097 262.334C648.637 262.503 649.271 262.944 649.927 263.708C649.363 263.556 648.778 263.081 648.097 262.334Z" fill="#2C87F1"/>
<path d="M586.782 197.415C587.217 197.54 587.577 197.965 587.937 198.691C587.527 198.566 587.116 198.141 586.782 197.415Z" fill="#2C87F1"/>
<path d="M644.817 258.363C645.268 258.504 645.605 258.94 645.936 259.669C645.521 259.528 645.112 259.093 644.817 258.363Z" fill="#2C87F1"/>
<path d="M643.051 257.321C643.469 257.202 644.047 257.365 644.779 257.797C644.359 257.911 643.786 257.756 643.051 257.321Z" fill="#2C87F1"/>
<path d="M623.815 236.362C624.267 236.5 624.603 236.932 624.934 237.656C624.518 237.517 624.109 237.086 623.815 236.362Z" fill="#2C87F1"/>
<path d="M622.051 235.32C622.469 235.202 623.047 235.365 623.779 235.797C623.359 235.911 622.786 235.756 622.051 235.32Z" fill="#2C87F1"/>
<path d="M603.815 215.362C604.267 215.5 604.603 215.932 604.934 216.656C604.518 216.517 604.109 216.086 603.815 215.362Z" fill="#2C87F1"/>
<path d="M602.051 214.321C602.469 214.202 603.047 214.366 603.779 214.797C603.359 214.911 602.786 214.757 602.051 214.321Z" fill="#2C87F1"/>
<path d="M669.074 284.294C669.333 284.128 669.592 284.303 669.867 284.807C669.608 284.989 669.337 284.822 669.074 284.294Z" fill="#2C87F1"/>
<path d="M588.074 199.294C588.334 199.129 588.593 199.305 588.869 199.811C588.609 199.991 588.339 199.822 588.074 199.294Z" fill="#2C87F1"/>
<path d="M608.035 220.315C608.213 220.264 608.492 220.441 608.859 220.857C608.611 221.009 608.34 220.825 608.035 220.315Z" fill="#2C87F1"/>
<path d="M699.004 302.011C700.32 303.705 701.637 305.399 702.954 307.094C702.389 307.497 701.824 307.9 701.259 308.303C700.177 306.59 699.095 304.877 698.253 302.699C698.663 302.16 698.833 302.085 699.004 302.011Z" fill="#2C87F1"/>
<path d="M691.112 298.899C692.365 299.572 693.619 300.245 694.872 300.918C694.282 301.459 693.691 302.001 693.101 302.542C692.399 301.63 691.698 300.717 690.986 299.42C690.976 299.036 691.112 298.899 691.112 298.899Z" fill="#2C87F1"/>
<path d="M690.915 299.11C690.38 299.068 689.906 298.952 689.254 298.275C689.044 297.147 689.012 296.582 689.021 295.979C689.062 295.943 689.144 295.871 689.144 295.871C689.773 296.657 690.401 297.443 691.071 298.564C691.112 298.899 690.976 299.036 690.915 299.11Z" fill="#2C87F1"/>
<path d="M687 292.645C686.379 292.2 685.755 291.404 685.098 290.289C685.71 290.745 686.354 291.52 687 292.645Z" fill="#2C87F1"/>
<path d="M694.991 297.376C695.62 297.78 696.256 298.533 696.922 299.593C696.301 299.175 695.649 298.45 694.991 297.376Z" fill="#2C87F1"/>
<path d="M687.046 294.986C687.067 294.563 687.073 294.115 687.041 293.332C687.684 293.729 688.362 294.461 689.093 295.532C689.144 295.871 689.062 295.943 688.752 295.866C687.952 295.514 687.462 295.24 686.971 294.965C686.971 294.965 687.031 294.961 687.046 294.986Z" fill="#2C87F1"/>
<path d="M695.53 304.496C695.603 304.908 695.521 305.163 695.439 305.417C695.161 305.133 694.884 304.85 694.607 304.566C694.863 304.49 695.119 304.414 695.53 304.496Z" fill="#2C87F1"/>
<path d="M698.986 310.018C698.542 309.86 698.098 309.701 697.654 309.543C697.783 309.266 697.912 308.989 698.041 308.712C698.351 308.969 698.66 309.227 698.985 309.742C699 310.001 698.986 310.018 698.986 310.018Z" fill="#2C87F1"/>
<path d="M695.452 312.528C695.483 312.579 695.422 312.476 695.452 312.528Z" fill="#2C87F1"/>
<path d="M699.008 309.994C699.132 310.134 699.248 310.281 699.363 310.428C699.276 310.382 699.189 310.335 699.044 310.153C698.986 310.018 699 310.001 699.008 309.994Z" fill="#2C87F1"/>
</g>
<defs>
<clipPath id="clip0_1_2">
<rect width="750" height="561" fill="white"/>
</clipPath>
</defs>
</svg>
